<svg width="107" height="44" fill="none" xmlns="http://www.w3.org/2000/svg"><path d="M26.583 8.332c0 1.87-.484 3.586-1.452 5.148-.968 1.562-2.376 2.838-4.224 3.828-1.848.99-4.048 1.573-6.6 1.749l-1.42 7.953c-.55 3.058-2.045 4.587-4.487 4.587-1.342 0-2.585-.396-3.73-1.188-1.121-.792-2.023-2.002-2.705-3.63-.682-1.628-1.023-3.63-1.023-6.006 0-4.466.715-8.25 2.145-11.352 1.452-3.124 3.388-5.456 5.808-6.996C11.337.863 14.02.082 16.947.082c2.068 0 3.817.363 5.247 1.089 1.452.726 2.54 1.716 3.267 2.97.748 1.232 1.122 2.629 1.122 4.191zM14.9 15.658c4.51-.572 6.765-2.915 6.765-7.029 0-1.452-.484-2.629-1.452-3.531-.946-.924-2.42-1.386-4.422-1.386-2.266 0-4.246.715-5.94 2.145-1.672 1.43-2.97 3.421-3.894 5.973-.902 2.53-1.353 5.423-1.353 8.679 0 1.364.132 2.574.396 3.63.286 1.056.638 1.881 1.056 2.475.44.572.858.858 1.254.858.55 0 .968-.759 1.254-2.277l1.089-6.237c-.858-.132-1.232-.187-1.122-.165-.66-.11-1.09-.308-1.287-.594-.198-.308-.297-.693-.297-1.155 0-.484.132-.869.396-1.155.286-.286.67-.429 1.155-.429.22 0 .385.011.495.033.528.088.935.143 1.22.165a459.2 459.2 0 011.222-6.897c.132-.748.429-1.276.89-1.584.485-.33 1.046-.495 1.684-.495.726 0 1.243.143 1.55.429.33.264.496.693.496 1.287 0 .352-.022.638-.066.858l-1.09 6.402zm27.848 2.211c.286 0 .506.143.66.429.154.286.231.649.231 1.089 0 1.056-.319 1.683-.957 1.881-1.32.462-2.772.726-4.356.792-.418 1.848-1.243 3.333-2.475 4.455-1.232 1.1-2.629 1.65-4.191 1.65-1.32 0-2.453-.319-3.399-.957a6.122 6.122 0 01-2.112-2.541c-.484-1.056-.726-2.2-.726-3.432 0-1.672.319-3.157.957-4.455.638-1.32 1.518-2.343 2.64-3.069a6.578 6.578 0 013.729-1.122c1.672 0 3.014.583 4.026 1.749 1.034 1.144 1.639 2.563 1.815 4.257 1.034-.066 2.266-.286 3.696-.66a1.94 1.94 0 01.462-.066zm-10.824 6.798c.704 0 1.309-.286 1.815-.858.528-.572.88-1.397 1.056-2.475a4.683 4.683 0 01-1.584-1.815 5.512 5.512 0 01-.528-2.376c0-.352.033-.704.099-1.056h-.165c-.88 0-1.617.429-2.211 1.287-.572.836-.858 2.024-.858 3.564 0 1.21.231 2.134.693 2.772.484.638 1.045.957 1.683.957zm11.226 3.498c-.836 0-1.43-.44-1.782-1.32-.33-.88-.495-2.288-.495-4.224 0-2.86.407-5.577 1.22-8.151.199-.638.518-1.1.958-1.386.462-.308 1.1-.462 1.914-.462.44 0 .748.055.924.165.176.11.264.319.264.627 0 .352-.165 1.144-.495 2.376-.22.88-.396 1.65-.528 2.31-.132.638-.242 1.441-.33 2.409.594-1.716 1.298-3.168 2.112-4.356.836-1.188 1.683-2.068 2.54-2.64.88-.594 1.706-.891 2.476-.891s1.309.176 1.617.528c.33.352.495.891.495 1.617 0 .704-.21 1.98-.627 3.828a37.264 37.264 0 00-.363 1.782c1.1-2.706 2.32-4.675 3.663-5.907 1.342-1.232 2.596-1.848 3.762-1.848 1.43 0 2.145.715 2.145 2.145 0 .858-.242 2.409-.726 4.653-.418 1.914-.627 3.179-.627 3.795 0 .88.319 1.32.957 1.32.44 0 .957-.264 1.55-.792.617-.55 1.43-1.43 2.443-2.64.264-.308.56-.462.89-.462.287 0 .507.132.66.396.177.264.265.627.265 1.089 0 .88-.21 1.562-.627 2.046-.946 1.166-1.97 2.123-3.07 2.871-1.077.748-2.31 1.122-3.695 1.122-1.122 0-1.97-.319-2.541-.957-.572-.66-.858-1.606-.858-2.838 0-.616.154-1.716.462-3.3.286-1.386.429-2.343.429-2.871 0-.352-.121-.528-.363-.528-.286 0-.693.374-1.221 1.122-.528.726-1.056 1.694-1.584 2.904a23.704 23.704 0 00-1.287 3.828c-.242 1.056-.528 1.76-.858 2.112-.308.352-.814.528-1.518.528-.726 0-1.276-.341-1.65-1.023-.352-.704-.528-1.551-.528-2.541 0-.836.11-2.046.33-3.63.176-1.408.264-2.332.264-2.772 0-.352-.121-.528-.363-.528-.33 0-.748.396-1.254 1.188-.506.792-1.001 1.804-1.485 3.036a31.032 31.032 0 00-1.122 3.63c-.242 1.034-.528 1.738-.858 2.112-.308.352-.803.528-1.485.528zm39.835-7.524c.286 0 .506.132.66.396.176.264.264.627.264 1.089 0 .88-.209 1.562-.627 2.046-.946 1.166-1.969 2.123-3.069 2.871-1.078.748-2.31 1.122-3.696 1.122-1.166 0-2.112-.418-2.838-1.254-1.254.814-2.563 1.232-3.927 1.254-.286 4.246-.935 7.788-1.947 10.626-1.012 2.86-2.497 4.29-4.455 4.29-1.188 0-2.068-.429-2.64-1.287-.572-.858-.858-2.046-.858-3.564 0-2.156.495-4.675 1.485-7.557.99-2.86 2.52-6.017 4.587-9.471 0-3.212-.022-5.445-.066-6.699-.022-.638.231-1.144.76-1.518.527-.374 1.187-.561 1.98-.561.461 0 .791.099.99.297.22.176.34.539.362 1.089 0 .55.011.957.033 1.221.704-.88 1.397-1.507 2.08-1.881a4.268 4.268 0 012.177-.594c1.232 0 2.233.495 3.003 1.485.792.99 1.188 2.288 1.188 3.894 0 1.166-.187 2.299-.56 3.399a11.102 11.102 0 01-1.552 3.003c.462.132.847.198 1.155.198.726 0 1.42-.264 2.08-.792.66-.528 1.506-1.408 2.54-2.64.264-.308.561-.462.891-.462zm-13.068 4.356c.792-.176 1.518-.605 2.178-1.287.682-.704 1.221-1.562 1.617-2.574a8.966 8.966 0 00.594-3.234c0-.66-.132-1.155-.396-1.485a1.254 1.254 0 00-1.056-.528c-.792 0-1.749.836-2.87 2.508a203.12 203.12 0 00-.034 4.257c0 1.012-.01 1.793-.033 2.343zm-6.303 14.85c.594 0 1.09-1.298 1.485-3.894.396-2.574.65-5.786.76-9.636-.947 2.2-1.695 4.301-2.245 6.303s-.825 3.685-.825 5.049c0 .704.088 1.243.264 1.617.154.374.341.561.561.561zM95.97 20.641c.286 0 .506.132.66.396.176.264.264.627.264 1.089 0 .88-.209 1.562-.627 2.046-.814.99-1.969 1.903-3.465 2.739a9.476 9.476 0 01-4.752 1.254c-2.31 0-4.103-.627-5.379-1.881-1.276-1.254-1.914-2.97-1.914-5.148 0-1.518.319-2.926.957-4.224.638-1.32 1.518-2.365 2.64-3.135 1.144-.77 2.431-1.155 3.861-1.155 1.276 0 2.299.385 3.069 1.155.77.748 1.155 1.771 1.155 3.069 0 1.518-.55 2.827-1.65 3.927-1.078 1.078-2.915 1.936-5.511 2.574.55 1.012 1.595 1.518 3.135 1.518.99 0 2.112-.341 3.366-1.023a11.322 11.322 0 003.3-2.739c.264-.308.561-.462.891-.462zm-8.316-4.785c-.814 0-1.507.473-2.079 1.419-.55.946-.825 2.09-.825 3.432v.066c1.298-.308 2.321-.77 3.069-1.386.748-.616 1.122-1.331 1.122-2.145 0-.418-.121-.748-.363-.99-.22-.264-.528-.396-.924-.396zm12.13 12.309c-1.298 0-2.409-.319-3.333-.957a6.21 6.21 0 01-2.046-2.574 8.386 8.386 0 01-.693-3.399c0-1.672.308-3.157.924-4.455.638-1.32 1.496-2.343 2.574-3.069 1.078-.748 2.288-1.122 3.63-1.122 1.298 0 2.409.33 3.333.99a5.89 5.89 0 012.079 2.541 8.386 8.386 0 01.693 3.399c0 1.672-.319 3.168-.957 4.488-.638 1.298-1.507 2.321-2.607 3.069a6.298 6.298 0 01-3.597 1.089zm.363-3.564c.748 0 1.375-.407 1.881-1.221.528-.814.792-2.002.792-3.564 0-1.21-.22-2.123-.66-2.739-.44-.616-.968-.924-1.584-.924-.792 0-1.452.407-1.98 1.221-.506.792-.759 1.98-.759 3.564 0 1.254.22 2.178.66 2.772.44.594.99.891 1.65.891z" fill="#000"/></svg>