<svg width="20" height="20" fill="none" xmlns="http://www.w3.org/2000/svg"><path d="M6.004 13.168h11.02c1.25 0 2.269-1.02 2.269-2.27V6.215c0-.008 0-.016-.004-.024 0-.007-.004-.02-.004-.027 0-.008-.004-.016-.004-.023-.004-.008-.004-.016-.008-.028-.003-.008-.003-.015-.007-.023s-.004-.016-.008-.024a.179.179 0 01-.012-.027c-.004-.008-.008-.016-.012-.02a51.226 51.226 0 00-.011-.023l-.012-.02c-.004-.007-.012-.015-.016-.023a.07.07 0 00-.015-.02c-.004-.007-.012-.011-.016-.019s-.012-.012-.016-.02c-.003-.007-.011-.011-.015-.015l-.02-.02c-.008-.004-.011-.011-.02-.015-.007-.004-.015-.012-.023-.016l-.02-.012c-.007-.004-.015-.007-.023-.015l-.023-.012a25.534 25.534 0 00-.024-.012l-.023-.011c-.008-.004-.016-.004-.024-.008a.072.072 0 00-.027-.008c-.008 0-.015-.004-.02-.004-.011-.004-.019-.004-.03-.004-.005 0-.008-.004-.016-.004L4.848 3.785v-1.95c0-.019 0-.042-.004-.058 0-.004 0-.007-.004-.015 0-.012-.004-.024-.004-.035l-.008-.032c0-.008-.004-.011-.004-.02l-.012-.034-.003-.016a.117.117 0 00-.016-.031c-.004-.004-.004-.012-.008-.016-.004-.008-.008-.016-.016-.023-.003-.008-.007-.012-.011-.02l-.012-.02c-.004-.007-.012-.015-.016-.023l-.01-.012-.024-.023-.011-.012a.172.172 0 00-.028-.023c-.004-.004-.012-.008-.015-.012-.008-.008-.016-.012-.024-.02l-.031-.019c-.004-.004-.008-.004-.012-.008-.015-.008-.035-.015-.055-.023L1.476.043A.55.55 0 00.75.34a.553.553 0 00.297.726L3.734 2.2v12.164c0 1.153.864 2.106 1.977 2.25a2.24 2.24 0 001.918 3.39 2.246 2.246 0 002.238-2.237c0-.41-.11-.801-.308-1.13h4.988c-.2.333-.309.72-.309 1.13a2.24 2.24 0 002.239 2.238 2.246 2.246 0 002.238-2.238 2.246 2.246 0 00-2.238-2.239H6.004c-.64 0-1.16-.523-1.16-1.16v-1.504c.34.192.738.305 1.16.305zm2.762 4.586a1.13 1.13 0 01-2.258 0c0-.621.508-1.129 1.129-1.129.62 0 1.129.508 1.129 1.129zm8.855 0a1.13 1.13 0 01-2.258 0c0-.621.508-1.129 1.13-1.129.62 0 1.128.508 1.128 1.129zm-.598-5.695H6.003c-.64 0-1.16-.524-1.16-1.16V4.897l13.34 1.836v4.157c0 .648-.523 1.168-1.16 1.168z" fill="#000"/></svg>